<mxfile host="Electron" agent="Mozilla/5.0 (Windows NT 10.0; Win64; x64) AppleWebKit/537.36 (KHTML, like Gecko) draw.io/24.7.8 Chrome/128.0.6613.36 Electron/32.0.1 Safari/537.36" version="24.7.8">
  <diagram name="Page-1" id="6jH-PG3mBH_SWDhO092j">
    <mxGraphModel dx="2284" dy="836" grid="1" gridSize="10" guides="1" tooltips="1" connect="1" arrows="1" fold="1" page="1" pageScale="1" pageWidth="850" pageHeight="1100" math="0" shadow="0">
      <root>
        <mxCell id="0" />
        <mxCell id="1" parent="0" />
        <mxCell id="pJXo0L57cefRr3YSgBy--1" value="" style="swimlane;startSize=0;" vertex="1" parent="1">
          <mxGeometry x="230" y="30" width="550" height="372" as="geometry" />
        </mxCell>
        <mxCell id="pJXo0L57cefRr3YSgBy--6" value="" style="image;html=1;image=img/lib/clip_art/networking/Wireless_Router_128x128.png" vertex="1" parent="pJXo0L57cefRr3YSgBy--1">
          <mxGeometry y="130" width="60" height="60" as="geometry" />
        </mxCell>
        <mxCell id="pJXo0L57cefRr3YSgBy--17" style="edgeStyle=orthogonalEdgeStyle;rounded=0;orthogonalLoop=1;jettySize=auto;html=1;" edge="1" parent="pJXo0L57cefRr3YSgBy--1" source="pJXo0L57cefRr3YSgBy--7" target="pJXo0L57cefRr3YSgBy--16">
          <mxGeometry relative="1" as="geometry" />
        </mxCell>
        <mxCell id="pJXo0L57cefRr3YSgBy--7" value="&lt;h1 style=&quot;margin-top: 0px;&quot;&gt;NAT&lt;/h1&gt;&lt;div&gt;192.168.1.126&lt;/div&gt;&lt;p&gt;80 --&amp;gt; 8081&lt;/p&gt;&lt;p&gt;443 --&amp;gt; 4443&lt;/p&gt;" style="text;html=1;whiteSpace=wrap;overflow=hidden;rounded=0;align=center;" vertex="1" parent="pJXo0L57cefRr3YSgBy--1">
          <mxGeometry x="60" y="110" width="110" height="120" as="geometry" />
        </mxCell>
        <mxCell id="pJXo0L57cefRr3YSgBy--9" value="&lt;p style=&quot;line-height: 1%;&quot;&gt;K8S&lt;/p&gt;" style="rounded=1;whiteSpace=wrap;html=1;fillColor=#fad7ac;strokeColor=#b46504;align=left;verticalAlign=top;" vertex="1" parent="pJXo0L57cefRr3YSgBy--1">
          <mxGeometry x="270" y="30" width="200" height="200" as="geometry" />
        </mxCell>
        <mxCell id="pJXo0L57cefRr3YSgBy--14" style="edgeStyle=orthogonalEdgeStyle;rounded=0;orthogonalLoop=1;jettySize=auto;html=1;" edge="1" parent="pJXo0L57cefRr3YSgBy--1" source="pJXo0L57cefRr3YSgBy--10" target="pJXo0L57cefRr3YSgBy--12">
          <mxGeometry relative="1" as="geometry" />
        </mxCell>
        <mxCell id="pJXo0L57cefRr3YSgBy--10" value="ingress&lt;div&gt;80&amp;nbsp;&lt;/div&gt;&lt;div&gt;443&lt;/div&gt;" style="rounded=1;whiteSpace=wrap;html=1;" vertex="1" parent="pJXo0L57cefRr3YSgBy--1">
          <mxGeometry x="185" y="80" width="120" height="60" as="geometry" />
        </mxCell>
        <mxCell id="pJXo0L57cefRr3YSgBy--11" value="AI" style="rounded=0;whiteSpace=wrap;html=1;fillColor=#bac8d3;strokeColor=#23445d;" vertex="1" parent="pJXo0L57cefRr3YSgBy--1">
          <mxGeometry x="270" y="290" width="120" height="60" as="geometry" />
        </mxCell>
        <mxCell id="pJXo0L57cefRr3YSgBy--13" style="edgeStyle=orthogonalEdgeStyle;rounded=0;orthogonalLoop=1;jettySize=auto;html=1;" edge="1" parent="pJXo0L57cefRr3YSgBy--1" source="pJXo0L57cefRr3YSgBy--12" target="pJXo0L57cefRr3YSgBy--11">
          <mxGeometry relative="1" as="geometry" />
        </mxCell>
        <mxCell id="pJXo0L57cefRr3YSgBy--12" value="NGINX" style="rounded=0;whiteSpace=wrap;html=1;" vertex="1" parent="pJXo0L57cefRr3YSgBy--1">
          <mxGeometry x="330" y="80" width="120" height="60" as="geometry" />
        </mxCell>
        <mxCell id="pJXo0L57cefRr3YSgBy--16" value="&lt;p style=&quot;line-height: 1%;&quot;&gt;PC&lt;/p&gt;" style="rounded=1;whiteSpace=wrap;html=1;fillColor=none;align=left;verticalAlign=top;" vertex="1" parent="pJXo0L57cefRr3YSgBy--1">
          <mxGeometry x="180" y="10" width="300" height="240" as="geometry" />
        </mxCell>
        <mxCell id="pJXo0L57cefRr3YSgBy--2" value="Home" style="text;html=1;align=center;verticalAlign=middle;resizable=0;points=[];autosize=1;strokeColor=none;fillColor=none;" vertex="1" parent="1">
          <mxGeometry x="220" y="10" width="60" height="30" as="geometry" />
        </mxCell>
        <mxCell id="pJXo0L57cefRr3YSgBy--3" value="" style="endArrow=classic;html=1;rounded=0;" edge="1" parent="1">
          <mxGeometry width="50" height="50" relative="1" as="geometry">
            <mxPoint x="-60" y="200" as="sourcePoint" />
            <mxPoint x="230" y="200" as="targetPoint" />
          </mxGeometry>
        </mxCell>
        <mxCell id="pJXo0L57cefRr3YSgBy--5" value="&lt;h1 style=&quot;color: green; font-family: &amp;quot;Times New Roman&amp;quot;; text-wrap: wrap;&quot;&gt;192.114.66.210&lt;/h1&gt;" style="edgeLabel;html=1;align=center;verticalAlign=middle;resizable=0;points=[];" vertex="1" connectable="0" parent="pJXo0L57cefRr3YSgBy--3">
          <mxGeometry x="0.0483" y="-2" relative="1" as="geometry">
            <mxPoint x="8" y="-2" as="offset" />
          </mxGeometry>
        </mxCell>
        <mxCell id="pJXo0L57cefRr3YSgBy--8" value="&lt;h1 style=&quot;color: green; font-family: &amp;quot;Times New Roman&amp;quot;; text-wrap: wrap;&quot;&gt;cabezon.yonor.me&lt;/h1&gt;" style="edgeLabel;html=1;align=center;verticalAlign=middle;resizable=0;points=[];" vertex="1" connectable="0" parent="pJXo0L57cefRr3YSgBy--3">
          <mxGeometry x="0.0483" y="-2" relative="1" as="geometry">
            <mxPoint x="18" y="-52" as="offset" />
          </mxGeometry>
        </mxCell>
        <mxCell id="pJXo0L57cefRr3YSgBy--4" value="WAN" style="ellipse;shape=cloud;whiteSpace=wrap;html=1;" vertex="1" parent="1">
          <mxGeometry x="-100" y="160" width="120" height="80" as="geometry" />
        </mxCell>
      </root>
    </mxGraphModel>
  </diagram>
</mxfile>
